<svg width="186" height="31" viewBox="0 0 186 31" fill="none" xmlns="http://www.w3.org/2000/svg">
<g clip-path="url(#clip0_7841_38100)">
<path d="M8.43144 24.3934H0.0231934V0.739197H8.50089C10.8867 0.739197 12.9405 1.21274 14.6623 2.15984C16.3841 3.09923 17.7082 4.45057 18.6348 6.21388C19.569 7.97717 20.0362 10.0869 20.0362 12.5432C20.0362 15.0072 19.569 17.1247 18.6348 18.8957C17.7082 20.6667 16.3764 22.0257 14.6391 22.9728C12.9096 23.9199 10.8404 24.3934 8.43144 24.3934ZM5.03801 20.1084H8.22296C9.70541 20.1084 10.9523 19.8466 11.9638 19.323C12.983 18.7917 13.7474 17.9717 14.257 16.8629C14.7742 15.7464 15.0329 14.3065 15.0329 12.5432C15.0329 10.7953 14.7742 9.36699 14.257 8.2582C13.7474 7.14942 12.9868 6.3332 11.9754 5.80961C10.9639 5.28601 9.71698 5.02422 8.23453 5.02422H5.03801V20.1084Z" fill="#3B4E9A"/>
<path d="M73.4389 9.0205H68.3659C68.2732 8.36599 68.0841 7.78466 67.7983 7.27647C67.5129 6.76055 67.146 6.32167 66.6981 5.95978C66.2506 5.59784 65.7329 5.32067 65.1464 5.12817C64.5675 4.93567 63.9381 4.83943 63.2583 4.83943C62.0307 4.83943 60.9616 5.14357 60.0505 5.75188C59.1393 6.35246 58.433 7.23027 57.9311 8.38525C57.4291 9.53256 57.1784 10.9262 57.1784 12.5663C57.1784 14.2526 57.4291 15.6694 57.9311 16.8167C58.4407 17.964 59.1511 18.8302 60.0622 19.4154C60.9733 20.0006 62.0272 20.2932 63.2237 20.2932C63.8953 20.2932 64.517 20.2047 65.0883 20.0276C65.6677 19.8505 66.1808 19.5925 66.6288 19.2537C67.0767 18.9072 67.4472 18.4876 67.7407 17.9948C68.0419 17.502 68.2503 16.9399 68.3659 16.3085L73.4389 16.3316C73.3074 17.4173 72.9793 18.4645 72.4544 19.4732C71.9372 20.4742 71.238 21.3712 70.3579 22.1643C69.4855 22.9497 68.4434 23.5734 67.2311 24.0354C66.0264 24.4897 64.6638 24.7169 63.1427 24.7169C61.0274 24.7169 59.1353 24.2395 57.4679 23.2847C55.8076 22.3299 54.4949 20.9477 53.5298 19.1382C52.5728 17.3288 52.0938 15.1381 52.0938 12.5663C52.0938 9.98683 52.5804 7.79234 53.5532 5.98285C54.526 4.17338 55.8464 2.79509 57.5143 1.84799C59.1816 0.893197 61.0579 0.415802 63.1427 0.415802C64.517 0.415802 65.791 0.608302 66.9646 0.993296C68.1458 1.3783 69.192 1.94039 70.1031 2.67958C71.0143 3.41108 71.7557 4.30813 72.327 5.37073C72.9059 6.43332 73.2764 7.64989 73.4389 9.0205Z" fill="#3B4E9A"/>
<path d="M92.6407 0.739197H97.6555V16.1006C97.6555 17.8254 97.2428 19.3346 96.4167 20.6282C95.5978 21.9218 94.4513 22.9305 92.977 23.6543C91.5023 24.3703 89.7839 24.7284 87.823 24.7284C85.854 24.7284 84.1321 24.3703 82.6578 23.6543C81.1831 22.9305 80.0365 21.9218 79.2181 20.6282C78.3992 19.3346 77.99 17.8254 77.99 16.1006V0.739197H83.0049V15.6732C83.0049 16.5741 83.2021 17.3749 83.5955 18.0756C83.997 18.7763 84.5606 19.3269 85.2868 19.7273C86.0125 20.1277 86.8579 20.3279 87.823 20.3279C88.7958 20.3279 89.6412 20.1277 90.3592 19.7273C91.0849 19.3269 91.6449 18.7763 92.0389 18.0756C92.4404 17.3749 92.6407 16.5741 92.6407 15.6732V0.739197Z" fill="#3B4E9A"/>
<path d="M102.45 24.3934V0.739197H107.465V20.2701H117.634V24.3934H102.45Z" fill="#8998D6"/>
<path d="M121.815 24.3934V0.739197H137.797V4.86252H126.83V10.4989H136.975V14.6222H126.83V20.2701H137.844V24.3934H121.815Z" fill="#8998D6"/>
<path d="M162.547 0.739197V24.3934H158.216L147.896 9.50557H147.723V24.3934H142.708V0.739197H147.109L157.347 15.6155H157.556V0.739197H162.547Z" fill="#8998D6"/>
<path d="M180.545 7.5421C180.453 6.61043 180.055 5.8866 179.352 5.37073C178.65 4.85482 177.696 4.59687 176.492 4.59687C175.673 4.59687 174.982 4.71238 174.419 4.94337C173.855 5.16669 173.422 5.47852 173.121 5.87893C172.828 6.27934 172.681 6.73361 172.681 7.24181C172.666 7.66529 172.755 8.0349 172.947 8.35059C173.148 8.66628 173.422 8.93964 173.77 9.17067C174.117 9.39392 174.519 9.59029 174.975 9.75967C175.43 9.92138 175.916 10.06 176.433 10.1755L178.565 10.6837C179.599 10.9147 180.549 11.2227 181.414 11.6077C182.278 11.9927 183.028 12.4662 183.66 13.0283C184.294 13.5904 184.784 14.2526 185.131 15.0149C185.486 15.7772 185.668 16.6512 185.676 17.6367C185.668 19.0843 185.297 20.3394 184.564 21.402C183.838 22.4569 182.788 23.2769 181.414 23.8621C180.047 24.4396 178.398 24.7284 176.468 24.7284C174.554 24.7284 172.886 24.4358 171.465 23.8506C170.052 23.2654 168.948 22.3992 168.153 21.2519C167.365 20.0969 166.952 18.6685 166.913 16.9669H171.766C171.82 17.76 172.048 18.4221 172.449 18.9535C172.859 19.4771 173.403 19.8736 174.083 20.1431C174.77 20.4049 175.546 20.5358 176.411 20.5358C177.26 20.5358 177.997 20.4126 178.623 20.1662C179.256 19.9198 179.746 19.5771 180.093 19.1382C180.441 18.6994 180.615 18.195 180.615 17.6252C180.615 17.0939 180.456 16.6473 180.14 16.2854C179.831 15.9235 179.375 15.6155 178.773 15.3614C178.179 15.1073 177.449 14.8763 176.584 14.6684L174.002 14.0216C172.002 13.5365 170.423 12.7781 169.265 11.7463C168.106 10.7145 167.531 9.32465 167.539 7.57676C167.531 6.14456 167.914 4.89332 168.686 3.82303C169.465 2.75274 170.535 1.91729 171.894 1.3167C173.253 0.7161 174.797 0.415802 176.526 0.415802C178.287 0.415802 179.823 0.7161 181.136 1.3167C182.456 1.91729 183.483 2.75274 184.216 3.82303C184.95 4.89332 185.328 6.13303 185.351 7.5421H180.545Z" fill="#8998D6"/>
<path d="M42.6712 3.54706C37.9292 -1.18203 30.2112 -1.18203 25.4691 3.54706C20.7281 8.2772 20.7281 15.9731 25.4691 20.7032C29.692 24.9136 36.269 25.3647 41.008 22.0769C41.1077 22.5475 41.3359 22.9965 41.7029 23.3625L48.6088 30.2495C49.6152 31.2511 51.2412 31.2511 52.2426 30.2495C53.248 29.247 53.248 27.6252 52.2426 26.6256L45.3368 19.7365C44.9719 19.3736 44.5206 19.145 44.0487 19.0455C47.3475 14.3185 46.8952 7.76052 42.6712 3.54706ZM40.4909 18.5288C36.9506 22.0595 31.1888 22.0595 27.6495 18.5288C24.1112 14.9982 24.1112 9.25314 27.6495 5.72244C31.1888 2.19282 36.9506 2.19282 40.4909 5.72244C44.0313 9.25314 44.0313 14.9982 40.4909 18.5288Z" fill="#3B4E9A"/>
</g>
<defs>
<clipPath id="clip0_7841_38100">
<rect width="186" height="31" fill="white"/>
</clipPath>
</defs>
</svg>
